HIERARCHY
ROOT Hips
{
	OFFSET 0.00000 0.00000 0.00000
	CHANNELS 6 Xposition Yposition Zposition Yrotation Zrotation Xrotation 
	JOINT Lumbar
	{
		OFFSET 0 0 0
		CHANNELS 3 Zrotation Xrotation Yrotation
		JOINT Neck
		{
			OFFSET 0.00 0.2701 0.00
			CHANNELS 3 Zrotation Xrotation Yrotation
			End Site
			{
				OFFSET 0.00 0.1379 0.00
			}
		}
		JOINT RightShoulder
		{
			OFFSET 0.0119 0.2289 0.1181
			CHANNELS 3 Zrotation Xrotation Yrotation
			JOINT RightElbow
			{
				OFFSET 0.00 -0.1475 0.00
				CHANNELS 2 Zrotation Yrotation
				JOINT RightWrist
				{
					OFFSET 0.00 -0.1605 0.00
					CHANNELS 2 Zrotation Xrotation
					End Site
					{
						OFFSET 0.0040 -0.1068 0.0006
					}
				}
			}
		}
		JOINT LeftShoulder
		{
			OFFSET 0.0119 0.2289 -0.1181
			CHANNELS 3 Zrotation Xrotation Yrotation
			JOINT LeftElbow
			{
				OFFSET 0.00 -0.1475 0.00
				CHANNELS 2 Zrotation Yrotation
				JOINT LeftWrist
				{
					OFFSET 0.00 -0.1605 0.00
					CHANNELS 2 Zrotation Xrotation
					End Site
					{
						OFFSET 0.0040 -0.1068 -0.0006
					}
				}
			}
		}
	}
	JOINT RightHip
	{
		OFFSET 0.0316 -0.0424 0.0458
		CHANNELS 3 Zrotation Xrotation Yrotation
		JOINT RightKnee
		{
			OFFSET 0.00 -0.2438 0.00
			CHANNELS 1 Zrotation
			JOINT RightAnkle
			{
				OFFSET 0.00 -0.2449 0.00
				CHANNELS 3 Zrotation Xrotation Yrotation
				End Site
				{
					OFFSET 0.1237 -0.0542 0.0051
				}
			}
		}
	}
	JOINT LeftHip
	{
		OFFSET 0.0316 -0.0424 -0.0458
		CHANNELS 3 Zrotation Xrotation Yrotation
		JOINT LeftKnee
		{
			OFFSET 0.00 -0.2438 0.00
			CHANNELS 1 Zrotation
			JOINT LeftAnkle
			{
				OFFSET 0.00 -0.2449 0.00
				CHANNELS 3 Zrotation Xrotation Yrotation
				End Site
				{
					OFFSET 0.1237 -0.0542 -0.0051
				}
			}
		}
	}
}
MOTION
Frames: 33
Frame Time: 0.02
0.82071 0.16379 -0.25853 15.11732 -25.38356 -4.30269 45.77216 -1.95685 -8.7598 -15.31402 9.76185 -0.83078 14.42322 -6.61426 9.02406 112.17495 76.41347 -8.14269 -0.51971 -5.95745 12.43905 -25.14062 112.50432 -92.87826 5.44533 -1.07758 20.70725 -8.02384 -34.09146 -0.32367 7.30467 17.64381 8.48437 19.13339 2.92304 -12.45394 0.52292 -3.03646 34.30485 20.15298
0.82054 0.16384 -0.2586 15.07645 -25.4186 -4.32992 45.76949 -1.92979 -8.82569 -15.44607 9.44524 -0.83078 14.34524 -6.79908 9.98055 112.34914 76.72898 -7.52988 -0.51963 -5.79579 12.01875 -24.89678 112.32314 -97.54726 7.30677 -1.60949 20.68043 -8.00261 -26.92048 -0.12638 4.46594 8.62824 3.7142 19.21017 2.93658 -12.67019 0.52357 -3.511 34.85708 20.29519
0.82044 0.16392 -0.25858 15.05967 -25.45754 -4.36617 45.76564 -1.89689 -8.91071 -15.6101 9.06765 -0.83078 14.24009 -7.04367 11.17145 112.56559 77.17181 -6.71558 -0.49046 -5.6767 11.39885 -24.50732 112.10902 -105.25353 10.16287 -2.55477 20.73112 -7.95856 -15.96811 -0.07977 0.48464 -4.46654 -3.17685 19.29787 2.97125 -13.04846 0.52458 -4.29961 35.78632 20.53342
0.8203 0.16398 -0.25859 15.03048 -25.49443 -4.39834 45.75703 -1.86656 -8.98314 -15.75372 8.72521 -0.83078 14.14151 -7.25468 12.26695 112.75448 77.68151 -5.96121 -0.44407 -5.52729 10.89567 -24.2057 111.9157 -111.16636 12.4502 -3.25162 20.74523 -7.92495 -7.10896 0.03904 -2.85056 -15.27347 -8.87614 19.38095 2.99663 -13.3426 0.5254 -4.92715 36.52294 20.72152
0.82019 0.16406 -0.25864 15.00867 -25.53239 -4.43038 45.77123 -1.83684 -9.07236 -15.92339 8.35001 -0.83078 14.06715 -7.4908 13.3182 112.97886 77.67 -5.33401 -0.51804 -5.41925 10.28978 -23.81866 111.69665 -118.66948 15.19173 -4.17999 20.7578 -7.89061 3.21403 0.15458 -6.70052 -27.80994 -15.48503 19.46238 3.0211 -13.68218 0.52632 -5.63322 37.35042 20.93678
0.82003 0.16412 -0.25859 14.97678 -25.56977 -4.46485 45.73791 -1.80444 -9.1307 -16.04511 8.02954 -0.83078 13.93627 -7.68958 14.51349 113.139 78.75185 -4.40478 -0.33927 -5.23846 9.84509 -23.57115 111.52393 -123.67875 17.24651 -4.73991 20.79553 -7.85253 11.43846 0.23643 -9.76008 -37.76079 -20.72773 19.55067 3.05233 -13.96405 0.52713 -6.24683 38.07385 21.1176
0.81968 0.16414 -0.25832 14.91067 -25.59581 -4.50377 45.56809 -1.76498 -9.10334 -16.03674 7.86926 -0.83078 13.65267 -7.7704 16.08161 113.11471 83.06855 -2.59038 0.54998 -4.82886 9.92739 -23.7632 111.48553 -120.57722 17.05645 -4.10195 20.87428 -7.80988 12.85535 0.26099 -10.32684 -39.46627 -21.62218 19.64566 3.09695 -14.06117 0.52758 -6.56723 38.46807 21.18968
0.81927 0.16415 -0.25796 14.83355 -25.62255 -4.54479 45.35133 -1.72318 -9.04365 -15.97727 7.76724 -0.83078 13.31424 -7.81179 17.77946 113.02375 88.43351 -0.49839 1.68663 -4.34829 10.17276 -24.09674 111.49528 -114.95974 16.1623 -3.09529 20.97824 -7.76433 12.06134 0.2552 -10.06703 -38.46144 -21.08542 19.74873 3.14757 -14.09236 0.52791 -6.77778 38.73687 21.22239
0.81889 0.16416 -0.25764 14.76153 -25.65479 -4.58493 45.15965 -1.68311 -8.99572 -15.93423 7.64269 -0.83078 13.00241 -7.8718 19.39816 112.96107 93.16447 1.40244 2.69801 -3.91221 10.32031 -24.3525 111.4843 -110.83426 15.66668 -2.31292 21.07793 -7.72001 12.35331 0.26233 -10.20833 -38.78222 -21.24852 19.85445 3.19548 -14.14391 0.52829 -7.01219 39.02905 21.26649
0.81853 0.16419 -0.25734 14.68969 -25.6631 -4.62524 44.95238 -1.64001 -8.96005 -15.92013 7.49989 -0.83078 12.68044 -7.93136 21.11499 112.90816 98.58197 3.58916 3.77047 -3.42599 10.55815 -24.65964 111.46752 -105.36934 14.8835 -1.30861 21.15034 -7.67508 12.43434 0.26843 -10.28161 -38.85027 -21.27796 19.93444 3.2442 -14.24005 0.52873 -7.36357 39.47133 21.34027
0.8181 0.16418 -0.25697 14.61486 -25.72077 -4.66537 44.76614 -1.60275 -8.8919 -15.83426 7.40901 -0.83078 12.36954 -7.98115 22.64927 112.8188 102.79552 5.23813 4.76682 -3.02667 10.65288 -24.89591 111.47439 -102.02201 14.5068 -0.66934 21.28399 -7.63124 12.37827 0.27099 -10.28546 -38.74448 -21.21605 20.06908 3.29223 -14.22758 0.529 -7.44615 39.57247 21.34299
0.81749 0.16412 -0.25647 14.53175 -25.91974 -4.70619 44.65227 -1.58201 -8.73358 -15.55344 7.45412 -0.83078 12.07993 -8.01918 23.69711 112.64259 103.61906 5.38374 5.55558 -2.88546 10.28236 -24.89695 111.53757 -105.42982 15.52774 -1.16329 21.58607 -7.58955 12.48752 0.27335 -10.29348 -38.82739 -21.25877 20.35868 3.33809 -13.91333 0.52879 -6.76839 38.70697 21.14695
0.81681 0.16402 -0.25592 14.44652 -26.1674 -4.74642 44.56076 -1.56727 -8.54521 -15.20367 7.54858 -0.83078 11.80756 -8.048 24.54633 112.43237 103.16499 4.97044 6.24835 -2.83355 9.769 -24.82367 111.6226 -110.98309 16.95795 -2.02793 21.94794 -7.54949 12.51272 0.27258 -10.25481 -38.80061 -21.24366 20.70184 3.38274 -13.49479 0.52841 -5.83051 37.51074 20.88251
0.81616 0.16395 -0.25539 14.36372 -26.38933 -4.7857 44.45708 -1.54995 -8.37598 -14.89145 7.61613 -0.83078 11.5425 -8.07633 25.45291 112.23899 103.16185 4.77689 6.94208 -2.74038 9.3416 -24.78802 111.69589 -115.35127 18.12835 -2.69891 22.27791 -7.50979 12.55965 0.27375 -10.23696 -38.80894 -21.24454 21.01641 3.42703 -13.13473 0.52814 -5.03994 36.50057 20.65691
0.81549 0.16385 -0.25485 14.27376 -26.62641 -4.8301 44.35992 -1.53198 -8.18233 -14.55141 7.70424 -0.83078 11.21219 -8.1206 26.50316 112.03699 103.71648 4.72909 7.81999 -2.6487 8.83017 -24.7399 111.77824 -120.53265 19.58637 -3.46709 22.62699 -7.4652 12.61418 0.27544 -10.196 -38.81622 -21.2547 21.34909 3.47532 -12.72486 0.52776 -4.12383 35.33609 20.39738
0.81486 0.16379 -0.25433 14.19913 -26.84358 -4.8638 44.25549 -1.51675 -8.03304 -14.25337 7.76097 -0.83078 11.02183 -8.13307 27.2052 111.84633 102.82541 4.25221 8.29402 -2.5747 8.45868 -24.69956 111.84656 -124.54686 20.55163 -4.12132 22.95236 -7.43137 12.64516 0.27089 -10.19858 -38.79843 -21.23206 21.65679 3.515 -12.39583 0.52754 -3.40762 34.41509 20.19261
0.81433 0.16382 -0.25388 14.16086 -26.99254 -4.86686 44.12145 -1.50812 -8.01172 -14.08994 7.71507 -0.83078 11.22237 -8.03428 26.99571 111.68999 97.97131 2.63586 7.62471 -2.53933 8.49928 -24.68714 111.86843 -124.96633 20.06212 -4.41015 23.18031 -7.42568 12.77917 0.28702 -10.371 -39.0641 -21.29724 21.88075 3.53049 -12.30691 0.52793 -3.31729 34.25538 20.15727
0.81384 0.16387 -0.25347 14.13945 -27.11969 -4.85943 43.97964 -1.50186 -8.03652 -13.97067 7.63659 -0.83078 11.56305 -7.90919 26.44319 111.54718 91.759 0.62534 6.56013 -2.51668 8.68593 -24.68626 111.87575 -124.13155 19.06846 -4.56746 23.38687 -7.431 12.87902 0.28707 -10.58619 -39.26844 -21.31167 22.07771 3.53754 -12.30473 0.52839 -3.43552 34.35096 20.17916
0.81333 0.16391 -0.25306 14.11456 -27.25809 -4.85758 43.84517 -1.49431 -8.04171 -13.83081 7.57497 -0.83078 11.83255 -7.81268 26.04426 111.4025 86.34287 -1.14971 5.70976 -2.48115 8.81182 -24.68752 111.89086 -123.76934 18.30055 -4.7586 23.61264 -7.432 12.90414 0.27428 -10.76028 -39.29059 -21.24357 22.2884 3.54881 -12.26903 0.52886 -3.4523 34.32531 20.17432
0.81285 0.16397 -0.25259 14.0716 -27.39386 -4.85212 43.69818 -1.48823 -8.04043 -13.69242 7.50537 -0.83078 12.12912 -7.64397 25.64213 111.24015 80.10706 -3.19317 4.71233 -2.47936 8.91181 -24.65649 111.90124 -123.84783 17.54599 -5.06543 23.79456 -7.43006 13.29174 0.35931 -11.02195 -40.16221 -21.60205 22.49589 3.55812 -12.20539 0.52948 -3.48886 34.31111 20.17084
0.81232 0.16399 -0.25223 14.0707 -27.52765 -4.85187 43.57161 -1.47909 -8.06361 -13.56021 7.44537 -0.83078 12.40884 -7.62161 25.17538 111.11621 75.29803 -4.74984 3.92593 -2.4083 9.09892 -24.69469 111.91843 -122.73802 16.65708 -5.10346 24.06931 -7.43696 12.93545 0.22067 -11.11426 -39.2917 -21.08137 22.70158 3.56989 -12.22111 0.52937 -3.53621 34.33668 20.1781
0.81171 0.16388 -0.25218 14.17864 -27.67646 -4.86727 43.53396 -1.46503 -8.14578 -13.45225 7.40784 -0.83078 12.55714 -7.99169 24.5472 111.10883 74.53443 -4.99075 3.84186 -2.14843 9.52148 -24.9376 111.95127 -118.15609 15.35418 -4.35751 24.54251 -7.46407 10.38249 -0.38895 -10.71088 -33.28384 -17.97051 22.92283 3.58764 -12.43782 0.52906 -3.57364 34.41446 20.20442
0.81105 0.16372 -0.25223 14.32894 -27.82182 -4.88861 43.51153 -1.44688 -8.2502 -13.34532 7.38315 -0.83078 12.69628 -8.51298 23.87758 111.13441 75.29266 -4.70706 3.98007 -1.81589 10.02261 -25.2481 111.99231 -112.49153 13.95745 -3.35603 25.12125 -7.49958 7.11026 -1.24633 -10.13918 -25.58807 -14.00899 23.1421 3.60884 -12.72837 0.52625 -3.6152 34.51848 20.23604
0.81039 0.16355 -0.2522 14.46196 -27.95751 -4.90798 43.46166 -1.42801 -8.34327 -13.22732 7.36007 -0.83078 12.86858 -8.97751 23.27407 111.13964 75.52138 -4.57252 4.00184 -1.51387 10.46718 -25.51596 112.0343 -107.65425 12.71725 -2.52009 25.69291 -7.53271 4.26775 -2.0882 -9.65637 -18.89183 -10.553 23.35062 3.63016 -12.98742 0.52519 -3.64715 34.6163 20.26741
0.80986 0.1635 -0.25228 14.58727 -28.13641 -4.92355 43.49729 -1.4206 -8.4448 -13.15829 7.30411 -0.83078 12.91001 -9.39232 22.46608 111.17965 75.05698 -4.8084 4.07452 -1.22724 11.0009 -25.83032 112.05732 -101.41015 10.99984 -1.47742 26.0917 -7.56174 0.99242 -2.53482 -9.12264 -11.21787 -6.59604 23.60014 3.64346 -13.25301 0.52738 -3.71366 34.72223 20.30484
0.80904 0.16321 -0.25217 14.73845 -28.22918 -4.94901 43.35964 -1.38769 -8.53136 -12.98353 7.32054 -0.83078 13.23678 -9.9448 22.06957 111.14025 76.36605 -4.1687 4.09958 -0.88569 11.3706 -26.06899 112.12037 -97.79119 10.23436 -0.79848 26.8753 -7.59917 -1.55506 -3.8457 -8.65448 -5.17294 -3.47743 23.77328 3.67516 -13.506 0.51489 -3.71303 34.78462 20.31361
0.80742 0.1622 -0.25159 14.9517 -28.04748 -4.99671 42.73102 -1.29077 -8.58806 -12.54559 7.53028 -0.83078 14.21185 -10.85886 22.90112 110.99252 82.6377 -1.0138 3.93707 -0.45751 11.2244 -26.03691 112.30586 -102.25396 12.35215 -1.25634 28.69986 -7.67502 -1.8883 -7.63217 -8.40821 -4.10502 -2.9153 23.65603 3.75026 -13.84305 0.52821 -3.4676 34.98314 20.38906
0.80553 0.16097 -0.2508 15.18979 -27.78649 -5.05479 41.92967 -1.16739 -8.62537 -11.99569 7.81326 -0.83079 15.50151 -11.9027 24.13594 110.73721 90.56946 2.96522 3.72154 0.03164 10.91697 -25.93455 112.52883 -109.30619 15.39333 -2.07825 30.90644 -7.75602 -1.46974 -12.25044 -8.23363 -4.72319 -3.22044 23.47593 3.84503 -14.14271 0.51672 -3.16327 35.09379 20.41175
0.80378 0.15988 -0.25006 15.41512 -27.58629 -5.1107 41.21251 -1.05241 -8.66043 -11.47759 8.0651 -0.83079 16.73781 -12.87547 25.13277 110.45847 97.45782 6.41949 3.5331 0.52481 10.71246 -25.89417 112.72558 -114.79368 17.85865 -2.68628 32.93662 -7.82293 -1.41331 -16.39147 -8.02619 -4.52623 -3.1067 23.37858 3.93515 -14.36436 0.47073 -2.92451 35.06202 20.35673
0.80195 0.1586 -0.2495 15.646 -27.28078 -5.15651 40.46968 -0.95219 -8.74371 -11.03954 8.30825 -0.83079 17.59017 -13.9055 26.35392 110.5037 105.60764 10.52132 3.33851 0.88941 10.38932 -25.73002 112.96139 -121.83877 20.96801 -3.48325 34.98598 -7.93861 -1.29392 -20.96588 -7.81392 -4.47528 -3.06699 23.05691 4.00727 -14.97392 0.60905 -2.52658 35.77179 20.71472
0.80023 0.15768 -0.24853 15.87339 -27.17664 -5.22518 39.74179 -0.8155 -8.72078 -10.40888 8.58684 -0.83079 19.32381 -14.84389 27.21049 109.82627 111.51797 13.4692 3.14257 1.53174 10.26928 -25.80525 113.12466 -126.32109 22.97142 -3.98471 37.08002 -7.95523 -1.11982 -24.82461 -7.63111 -4.54441 -3.09104 23.18188 4.12153 -14.78551 0.36871 -2.44065 34.95266 20.22056
0.79876 0.15781 -0.2465 16.06245 -27.64096 -5.35915 39.07411 -0.5805 -8.41647 -9.26791 8.94435 -0.83079 23.35375 -15.50733 26.90867 107.36875 110.71609 12.97499 2.94474 2.95606 10.78926 -26.56607 113.07821 -122.64337 21.56482 -3.51165 39.24175 -7.68448 -0.95679 -26.56399 -7.51146 -4.52655 -3.07604 24.60371 4.34736 -12.2365 -1.00605 -3.27872 29.623 17.21196
0.79745 0.15832 -0.24406 16.25177 -28.31161 -5.51472 38.4316 -0.31063 -8.00463 -7.93846 9.33501 -0.83079 28.26868 -16.07156 26.23644 104.15425 107.61805 11.29816 2.74864 4.65122 11.5116 -27.56869 112.95753 -116.38164 19.03628 -2.74264 41.42607 -7.31583 -0.76475 -27.5416 -7.42006 -4.58128 -3.10029 26.46752 4.61508 -8.91978 -2.74296 -4.42483 22.8206 13.38271
